<svg width="31" height="31" viewBox="0 0 31 31" fill="none" xmlns="http://www.w3.org/2000/svg">
<path d="M23.872 0.152568L15.1024 8.01055C14.6493 8.41998 14.1054 8.71601 13.5156 8.8743C12.9258 9.03259 12.3068 9.04862 11.7095 8.92107L0.152577 6.50816L8.01056 15.2777C8.41999 15.7309 8.71602 16.2747 8.87431 16.8645C9.0326 17.4544 9.04863 18.0733 8.92108 18.6706L6.50817 30.2275L15.2777 22.3696C15.7309 21.9601 16.2747 21.6641 16.8645 21.5058C17.4544 21.3475 18.0733 21.3315 18.6706 21.459L30.2275 23.8719L22.3696 15.1024C21.9601 14.6492 21.6641 14.1054 21.5058 13.5156C21.3475 12.9257 21.3315 12.3068 21.459 11.7095L23.872 0.152568Z" fill="#FFC261"/>
</svg>
